<?xml version="1.0" encoding="UTF-8"?>
<svg id="Layer_1" data-name="Layer 1" xmlns="http://www.w3.org/2000/svg" viewBox="0 0 346.8 436.84">
  <defs>
    <style>
      .cls-1 {
        fill: #fff;
      }

      .cls-2 {
        fill: #e51937;
      }

      .cls-3 {
        fill: #ffc429;
      }
    </style>
  </defs>
  <path class="cls-3" d="M128.1,88.22s14.65,10.11-1.23,26.23c0,0,8,11.29,34.33-12.82l26.95,3.11,10.52,17.63,7.66-18.61c-1.1-.18,14.95.53,12.26-28.65l13.28-11.72s-8.9-10.22-28.83-12.43l2.07,11.3-6.43,6.52-14.23-16.9-64.27-2.3,20.34,32.68-12.42,5.96Z"/>
  <rect class="cls-1" x="172.62" y="156.72" width="89.6" height="95.41" transform="translate(.89 -.95) rotate(.25)"/>
  <path class="cls-3" d="M84.72,252.23c-.18,41.21,5.08,103.71,88.89,139.7,0,0,94.12-28.85,88.24-137.86l-177.12-1.84Z"/>
  <path class="cls-2" d="M209.72,277.45c-5.66,7.29-13.78,12.51-18.62,15.2-5.42-11.8-17.61-20.02-31.48-20.08-19.11-.08-34.66,15.34-34.75,34.44-.04,9.72,3.48,16.91,3.48,16.91,9.03-5,16.12,6.56,19.42,8.19,4.59,2.28,6.08,9.62,11.55,9.64-.26-8.06,17.66-10.15,27.87-19.63.84,8.81,2.83,16.09,7.16,15.05,10.33-2.5,22.54-15.03,27.42-32.81,4.88-17.79,13.58-35.84,13.58-35.84-7.32-6.11-17.09-2.05-25.62,8.93Z"/>
  <circle class="cls-3" cx="146.24" cy="317.96" r="10.46"/>
  <circle class="cls-3" cx="163.21" cy="316.62" r="7.21"/>
  <circle class="cls-3" cx="172.52" cy="304.01" r="8.55"/>
  <circle class="cls-3" cx="180.53" cy="331.11" r="11.45"/>
  <circle class="cls-3" cx="217.38" cy="208.65" r="27.35"/>
  <path class="cls-1" d="M202.11,209.22l15.27.07-.07,16.75s15.49-3.32,17.67-17.52l-15.69-.07.07-16.11s-14.41-.91-17.25,16.89Z"/>
  <path class="cls-1" d="M132.64,320.79l-11.62,7.58s5.19,9.49,13.95,10.66l6.57,16.99,7.09-6.19,17.32,16.05,1.9-14.55s16.23,5.72,28.71-2.98l-4.76-10.2s-.02,5.23-12.32,4.89c-12.3-.34-14.07-14.76-14.07-14.76l-20.92,1.18-11.84-8.67Z"/>
  <polygon class="cls-2" points="84.55 157.3 84.72 252.23 173.28 252.33 172.83 156.53 84.55 157.3"/>
  <path class="cls-1" d="M104.16,182.82l-.31,46.02,51.66.12-1.1-46.35s-9.32-4.27-25.05-4.23c-15.74.04-25.2,4.45-25.2,4.45Z"/>
  <rect class="cls-3" x="119.57" y="178.79" width="12.48" height="55.46" transform="translate(.9 -.55) rotate(.25)"/>
  <path d="M265.3,152.26l-.05,103.39h0c-.07,13.95-.44,27.97-2.92,41.8-7.81,48.79-45.79,77.88-87.41,98.72l-1.54.78-1.54-.78c-33.4-16.87-67.39-40.28-81.24-76.64-3.95-10.18-6.18-20.78-7.42-31.52-1.24-10.76-1.51-21.66-1.54-32.44l.05-103.39,88.44.04h6.73s88.44.05,88.44.05ZM258.52,248.91l.04-89.92-81.71-.04-.04,89.92,81.71.04ZM258.49,255.65l-81.68-.04h-6.73s-81.68-.04-81.68-.04c.2,20.77,1.19,41.94,8.87,61.38,13.2,33.8,44.73,55.3,76.12,71.21,31.4-15.87,62.96-37.35,76.19-71.14,7.69-19.43,8.71-40.6,8.93-61.37ZM170.08,248.87l.04-89.92-81.71-.04-.04,89.92,81.71.04Z"/>
  <path d="M223.04,177.48l-.11-.41c-.31-1.18-1.38-2.01-2.6-2.01h0c.88-.7,1.59-1.84,1.58-3.27-.02-2.66-4.19-4.2-4.19-4.2,0,0-4.22,1.56-4.2,4.19.01,1.33.62,2.51,1.58,3.27h0c-1.23,0-2.3.83-2.61,2.01l-.11.4c-15.35,2.66-26.87,16.63-25.61,33,1.17,15.17,13.46,27.39,28.63,28.49,18.13,1.31,33.31-13.06,33.31-30.92,0-15.29-11.1-28.02-25.67-30.56ZM214.46,232c-10.98-1.45-18.93-9.4-20.37-20.38h15.31s-5.22,5.11-5.22,5.11c-2.54,2.53-2.54,7.23,0,9.78l10.29-10.06v15.55ZM214.47,205.18h-9.14c1.17-4.47,4.69-7.98,9.15-9.14v9.14ZM214.48,190.09c-2.32.41-4.46,1.29-6.41,2.47h-6.17s0,6.14,0,6.14c-1.21,1.96-2.11,4.13-2.52,6.48h-5.28c1.45-10.97,9.41-19.68,20.39-21.13v6.04ZM220.92,184.05c10.97,1.45,19.68,10.17,21.12,21.14h-16.06s5.22-5.11,5.22-5.11c2.54-2.54,2.54-7.24,0-9.78l-10.29,10.06v-16.31ZM220.91,211.63h9.14c-1.17,4.47-4.68,7.98-9.14,9.14v-9.14ZM220.9,232v-5.28c2.38-.42,4.58-1.34,6.56-2.57h6s0-6.03,0-6.03c1.21-1.96,2.11-4.13,2.52-6.48h6.04c-1.45,10.98-10.16,18.92-21.13,20.36Z"/>
  <path d="M158.15,179.24l-3.58-.04v-3.46c-9.43,3.89-16.46-5.72-25.9-.89-9.43-4.84-16.45,4.58-25.89.86v3.46s-2.45.03-2.45.03l-.03,53.05h16.33s0,7.8,0,7.8l8.53-3.87,8.53,3.88v-7.79s24.48.01,24.48.01l-.02-53.05ZM128.13,180.58l-.35,28.75h-5.33s-.21-28.75-.21-28.75h5.89ZM116.64,223.41c-2.72.99-5.84,2.39-9.6,2.1l.02-41.65c3.76.27,6.88-1.11,9.6-2.1l-.02,41.65ZM125.17,230.16l-2.95,1.34.24-15.77h5.33s.33,15.77.33,15.77l-2.94-1.34ZM151.44,225.43c-6.87,1.13-11.19-3.8-17.74-2.91l.02-41.65c6.55-.88,10.87,4.02,17.74,2.91l-.02,41.65Z"/>
  <path d="M237.25,264.89c-25.37-9.01-25.4,13.94-44.79,21.18-27.14-39.53-87.28-7.4-69.01,37.36-1.97,1.17-4.12,2.15-6.08,3.09.94,3.65,2.34,10.92,14.75,15.29.89,3.39,3.09,10.08,7.74,16.65l3.08,4.31c2.03-3.24,2.1-4.33,5.3-7.98,4.38,6.02,12.78,13.99,21.78,16.96.16-5.96-.22-6.27.84-15.66,6.86,1.76,22.56,1.74,31.02-7.57-1.68-2.45-3.76-5.62-5.01-8.06,35.51-13.03,24.37-49.16,44.65-74.03l-4.27-1.54ZM160.09,275.63c21.58,0,37.2,22.97,29.42,43.03-.85-.65-1.78-1.21-2.76-1.66,10.28-28.09-28.6-47.85-42.6-26.44,8.29-4.77,18.78-5.23,26.71.3-6.88.67-12.27,6.87-11.77,13.93-1.35.53-2.58,1.3-3.65,2.25-8.38-7.78-23.36-1.62-23.75,9.89-.44.69-1.14,1.43-2,2.19-8.38-20.55,8.18-44.32,30.41-43.48ZM159.6,313.14c2.73-3.77,9.26-1.51,9.01,3.21.06,4.19-5.34,6.53-8.36,3.72.37-2.29.11-4.81-.65-6.93ZM165.9,304.18c-.1-2.21,1.03-4.26,2.74-5.43.73,1.4,1.86,3.02,3.53,4.17,0,0,1.16-2.53,2.67-4.73,5.17,2.08,4.68,10.33-.7,11.78-1.76-2.95-4.72-5.11-8.23-5.79ZM174.93,324.08s-.02.03-.03.04c0,0,1.11,4.62,4.68,7.08,0,0,2.68-5.86,5.2-7.51,7.5,4.42,4.02,16.62-4.81,16.29-8.31.02-11.78-11.24-5.04-15.92ZM153.57,318.05c-.08,4.16-3.52,7.48-7.68,7.41-7.06.11-10.06-9.71-4.31-13.59,2.45.74,4.48,3.34,4.48,3.34,0,0,2.15-1.97,3.42-3.97,2.46,1.28,4.14,3.85,4.09,6.81ZM169.12,348.64l-3.63-1.14c-.92,4.12-1.75,9.27-1.98,13.16-9.37-7.84-10.9-11.72-14.1-16.1-1.98,1.65-4.98,4.11-6.49,5.91-4.53-9-4.19-10.66-5-14.45-5.26-.44-9.96-3.38-11.69-6.25,3.14-1.73,5.48-3.41,7.22-4.9,2.2,3.96,6.21,6.78,10.92,7.32-.11,2.43-.08,6.36,1,9.14,0,0,3.8-3.32,5.2-3.56,0,0,4.99,7.66,8.69,10.08,0,0,4.11-5.67,4.47-11.23l1.87.4c3.41,9.68,17.35,13.09,24.85,5.93.69,1.4,1.49,2.81,2.27,4.09-9.68,5.8-23.46,1.64-23.61,1.59ZM221.41,293.99c-2.13,7.21-2.81,12.7-6.3,19.24-.64-5.23-5.38-7.76-5.38-7.76,0,17.49-7.06,25.76-13.68,26.51.02-2.11-.64-4.8-1.39-6.65,4.69-7.59,5-23.3,3.05-28.76,0,0,4.83-2.24,12.15-12.54,5.46-8.06,10.02-17.6,21.4-14.61-4.45,7.53-7.13,16.3-9.86,24.56Z"/>
  <g>
    <path d="M241.27,133.46h-31.25c.23-6.42-5.68-3.1-7.15-7.62-.95-2.92,1.78-10.14,5.43-18.67,0,0,.75.07,2.4-.53,17.54,13.79,3.17,11.32,8.96,19.4,4.45-4,5.18-6.2,9.61-2.65.89,2.7.72,6.91.72,6.91,0,0,4.02-1.54,5.05-4.55.98,2.41,1.12,4.59,1.12,4.59,2.28-2.35,4.06-5.21,3.42-7.86-.79-3.21-3.19-3.61-7.01-6.77-3.82-3.15-8.41-10.76-9.78-17.27,3.06-.33,4.01-2.92,4.01-2.92,0,0-4.57-5-5.16-12.43-.67-8.46,2.55-10.02,2.55-10.02,0,0,7.25-3.14,7.87,2.98,10.71-10.86,4.98-12.86-.29-15.21-3.86-6.38-14.92-8.43-21.27-17.34-2.05,1.88-2.56,4.74-2.56,4.74,0,0-3.74-.71-7.27-4.62-3.05,4.13-3.59,11.85,1.37,17.35,0,0-.65,2.57-2.91,3.88-5.48-9.77-6.91-14.97-18.65-16.63-11.4-1.62-29.74-2.9-46.93-7.46-1.28,2.78-1.69,6.5-1.69,6.5-5.43-.31-12.77-1.06-15.51-1.88-1.81,12.28,7.99,16.67,7.99,16.67.86,6.18,5.53,9.17,5.53,9.17.72,5.61,6.12,8,6.12,8-19.98,5.53-26.39,44.62-43.4,35.49,0,.1-1.29,11.94,8.43,11.92,13.02-.03,20.37-26.15,31.3-29.19,0,0,1.6,9.26-8.74,15.99,0,0,.38,16.77.45,20h-20.02c-1.13-.01-2.6,1.4-2.6,3.14v3.52s143.81.07,143.81.07v-3.52c0-1.74-1.46-3.15-3.93-3.15ZM159.58,126.97c-5.22-12.19,8.02-8.98,10.3-22.19,1.6,0,15.18,2.32,17.67,2.84,0,0,1.18,2.88,2.16,4.6-3.18.28-6.52-.5-6.52-.5.92,7.64,10.29,8.09,9.9,13.1-.32,4.09-5.11,5.09-6.13,8.63h-20.95c-.45-6-5.38-4.01-6.43-6.47ZM139.38,91.54l-5.3-2.24c8.03-11.9,39.63-6.42,55.61-7.6-1.61-3.81-5.71-4.48-32.57-5.1-11.75-.27-19.35-.5-20.09-4.79l49.9,1.39c-1.44-3.73-6.59-4.08-25.2-4.94-18.12-.83-29.71-.51-30.47-5.75l52,1.93c-2.08-4.86-12.15-4.71-25.83-5.29-18.82-.8-33.28-1-34.48-7.37,5.87.97,21.59,1.6,34.57,2.16,8.12.35,18.91.16,23.82,1.18,10.2,2.12,15.17,21.21,15.17,21.21,0,0,9.97-9.03,12.99-15.75,0,0-4.53-2.89-3.75-7.46,4.92,2.59,19.52,4.7,22.25,10.01-3.6,2.85-6.21,8.25-13.37,6.58-.05,2.74,2.56,3.88,2.56,3.88,0,0-.93,2.03-.84,7.06.13,7.39,2.11,16.44-6.67,20.01,1.86-7.03-2.42-8.95-2.42-8.95,0,0-6.73,19.04-8.64,24.83-6.28-6.88-11.09-26.46-11.09-26.46,0,0-5.68.23-11.49-.86.97,6.27,7.22,7.06,7.22,7.06.48,1.66,1.69,4.41,1.69,4.41-3.77.14-13.99-2.44-19.24-2.44-.13-6.07-4.74-7.2-4.75-7.21-.48,13.76-9.77,21.01-28.36,23.65,10.14-8.63,6.8-23.15,6.8-23.15ZM135.32,127.73c-1.47-9.57,4.74-6.74,10.96-9.94,2.9,9.82,1.25,14.71.87,15.63h-6.97c-.49-2.29-1.81-5.49-4.85-5.69Z"/>
    <path d="M214.14,59.64s-.48,3.76,3.09,5.46c3.9,1.86,6.41-2.04,6.41-2.04,0,0-.31-1.72-9.49-3.41Z"/>
  </g>
</svg>