<svg id="Layer_1" data-name="Layer 1" xmlns="http://www.w3.org/2000/svg" viewBox="0 0 718 78.64">
  <defs>
    <style>
      .cls-1 {
      fill: #fff;
      }
    </style>
  </defs>
  <polygon class="cls-1" points="0 77.58 0 72.37 7.52 70.38 7.52 7.5 0 5.68 0 .47 26.03 0 26.03 5.22 18.51 7.51 18.51 70.4 26.03 72.37 26.03 77.58 0 77.58"/>
  <polygon class="cls-1" points="90.52 77.58 90.52 72.37 98.04 70.39 98.04 26.56 97.22 26.36 80.08 59.95 73 60.4 56.54 26.37 55.72 26.56 55.72 70.43 63.24 72.37 63.24 77.58 39.43 77.58 39.43 72.37 46.95 70.41 46.95 18.26 39.43 16.45 39.43 11.24 60.79 10.77 77.9 48.56 95.76 11.25 115.59 10.78 115.59 15.99 108.07 18.29 108.07 70.39 115.59 72.37 115.59 77.58 90.52 77.58"/>
  <path class="cls-1" d="M128.98,77.58v-5.21l7.52-2V18.24l-7.52-1.79v-5.21l19.24-.47h9.44c5.11,0,9.35.88,12.62,2.6,3.25,1.72,5.7,4.11,7.29,7.1,1.6,3.01,2.41,6.51,2.41,10.4,0,4.21-.97,8.05-2.88,11.4-1.91,3.35-4.83,6-8.68,7.88-3.87,1.89-8.89,2.85-14.9,2.85h-6.02v17.43l9.64,1.96v5.19h-28.15ZM147.5,45.28h6.12c4.85,0,8.62-1.29,11.2-3.84,2.58-2.54,3.89-6.01,3.89-10.29,0-3.95-1.09-7.1-3.25-9.36-2.16-2.26-5.4-3.41-9.62-3.41h-8.34v26.89Z"/>
  <path class="cls-1" d="M234,77.58l-8.66-18.45c-1.15-2.56-2.22-4.58-3.16-5.99-.98-1.45-2.21-2.47-3.67-3.05-1.29-.51-3.04-.76-5.22-.76-.25,0-.52,0-.78.01h-3.99s0,21.02,0,21.02l8.58,2.02v5.2h-27.09v-5.21l7.52-1.98V18.32l-7.52-1.86v-5.22l19.44-.47h10.02c7.38,0,13.03,1.56,16.79,4.63,3.73,3.05,5.63,7.51,5.63,13.25,0,5.26-1.63,9.63-4.85,13.01-2.5,2.62-6.15,4.46-10.86,5.46l-.03.84c.75.21,1.32.42,1.81.65,1.54.74,2.84,1.76,3.85,3.02,1.03,1.28,2.04,2.86,2.99,4.7l7.25,14.22,5.72,1.8v5.23h-13.75ZM208.52,41.91h6.79c4.96,0,8.8-1.05,11.4-3.13,2.63-2.1,3.97-5.21,3.97-9.25,0-3.52-1.07-6.28-3.18-8.22-2.09-1.93-5.32-2.91-9.59-2.91h-9.4v23.52Z"/>
  <path class="cls-1" d="M287.04,78.64c-5.81,0-10.96-1.28-15.3-3.79-4.34-2.52-7.77-6.31-10.19-11.29-2.43-4.99-3.67-11.26-3.67-18.61,0-5.84.77-11.03,2.29-15.43,1.52-4.39,3.69-8.1,6.46-11.03,2.77-2.93,6.07-5.15,9.82-6.59,3.75-1.45,7.96-2.19,12.52-2.19s8.51.72,12.13,2.14c3.62,1.42,6.78,3.54,9.39,6.31,2.61,2.77,4.69,6.26,6.17,10.36,1.49,4.11,2.24,8.96,2.24,14.41,0,7.48-1.36,13.95-4.05,19.23-2.68,5.27-6.44,9.38-11.16,12.21-4.73,2.84-10.33,4.28-16.65,4.28ZM288.39,18c-3.47,0-6.67.86-9.52,2.57-2.87,1.71-5.13,4.56-6.73,8.45-1.59,3.85-2.4,9.08-2.4,15.54,0,6,.76,10.96,2.25,14.72,1.5,3.79,3.65,6.62,6.38,8.4,2.72,1.77,5.93,2.67,9.54,2.67s6.78-.9,9.63-2.67c2.86-1.77,5.18-4.66,6.92-8.58,1.72-3.9,2.59-9.15,2.59-15.6,0-6.01-.81-10.94-2.4-14.68-1.6-3.76-3.82-6.54-6.58-8.25-2.76-1.71-6.01-2.57-9.67-2.57Z"/>
  <polygon class="cls-1" points="351.84 77.67 331.76 18.09 325.16 16.46 325.16 11.24 351.87 10.78 351.87 15.98 344.08 17.96 358.78 66.4 374.87 18.23 367.1 16.45 367.1 11.24 391.39 10.78 391.39 15.98 384.89 17.75 363.76 77.67 351.84 77.67"/>
  <polygon class="cls-1" points="399.59 77.58 399.59 72.37 407.1 70.39 407.1 18.28 399.59 16.46 399.59 11.24 418.35 10.77 447.4 10.77 447.4 26.58 441.06 26.58 439.55 18.48 418.1 18.48 418.1 39.79 433.74 39.79 435.12 34.59 440.03 34.59 440.03 52.42 435.12 52.42 433.75 47.21 418.1 47.21 418.1 69.86 440.74 69.86 442.32 61.09 448.56 61.09 448.47 77.58 399.59 77.58"/>
  <polygon class="cls-1" points="482.44 77.58 482.44 72.37 489.96 70.43 489.96 7.46 482.44 5.68 482.44 .47 509.25 0 509.25 5.21 500.96 7.44 500.96 69.86 524.97 69.86 526.77 59.06 533.01 59.06 533.01 77.58 482.44 77.58"/>
  <polygon class="cls-1" points="544.77 77.58 544.77 72.37 552.28 70.38 552.28 18.28 544.77 16.45 544.77 11.24 570.8 10.78 570.8 15.99 563.28 18.28 563.28 70.41 570.8 72.37 570.8 77.58 544.77 77.58"/>
  <polygon class="cls-1" points="584.19 77.58 584.19 72.37 591.71 70.41 591.71 18.34 584.19 16.46 584.19 11.24 602.96 10.77 631.34 10.77 631.43 26.68 625.09 26.68 623.6 18.48 602.71 18.48 602.71 40.27 617.84 40.27 619.19 35.21 624.09 35.21 624.09 53.03 619.19 53.03 617.86 47.98 602.71 47.98 602.71 70.4 612.06 72.38 612.06 77.58 584.19 77.58"/>
  <polygon class="cls-1" points="641.17 77.58 641.17 72.37 648.69 70.39 648.69 18.28 641.17 16.46 641.17 11.24 659.93 10.77 688.99 10.77 688.99 26.58 682.64 26.58 681.13 18.48 659.68 18.48 659.68 39.79 675.36 39.79 676.74 34.59 681.65 34.59 681.65 52.42 676.74 52.42 675.37 47.21 659.68 47.21 659.68 69.86 682.32 69.86 683.9 61.09 690.14 61.09 690.05 77.58 641.17 77.58"/>
  <path class="cls-1" d="M711.68,78.35c-1.93,0-3.5-.57-4.66-1.71-1.18-1.15-1.75-2.62-1.75-4.51s.63-3.35,1.93-4.5c1.31-1.16,2.78-1.72,4.49-1.72,1.93,0,3.48.57,4.61,1.7,1.13,1.13,1.71,2.65,1.71,4.52s-.62,3.35-1.88,4.5c-1.26,1.14-2.75,1.72-4.43,1.72Z"/>
</svg>