<?xml version="1.0" encoding="UTF-8"?>
<svg id="Layer_1" data-name="Layer 1" xmlns="http://www.w3.org/2000/svg" viewBox="0 0 239.91 91.21">
  <defs>
    <style>
      .cls-1 {
      fill: #fff;
      }
    </style>
  </defs>
  <path class="cls-1" d="M198.95,91.21c-8.2,0-15.46-1.71-21.6-5.1-6.13-3.38-10.92-8.45-14.26-15.08-3.34-6.65-5.04-14.99-5.04-24.79s1.72-18.13,5.11-24.99c3.38-6.84,8.29-12.15,14.58-15.78,6.3-3.63,13.96-5.47,22.74-5.47,4.77,0,9.81.55,14.98,1.64,5.07,1.07,10.28,2.69,15.47,4.82l-1.11,21.16h-8.64l-1.04-5.91c-.84-4.77-4.54-8.62-9.2-9.58-3.4-.7-6.55-1.04-9.45-1.04-5.74,0-10.72,1.35-14.8,4.01s-7.26,6.64-9.45,11.83c-2.17,5.16-3.28,11.57-3.28,19.05,0,10.65,2.32,19.06,6.89,25,4.6,5.98,11.28,9.01,19.86,9.01,2.73,0,5.61-.32,8.55-.96,2.3-.5,4.73-1.17,7.23-1.98l.3-.1v-21.4l-9.48-1.36v-7.84h32.6v7.84l-9.48,1.36v28.8c-5.63,2.22-11.14,3.93-16.38,5.09-5.33,1.17-10.41,1.77-15.1,1.77h0Z"/>
  <path class="cls-1" d="M43.56,91.21c-6.69,0-12.25-.85-16.5-2.51-4.24-1.66-7.59-3.85-9.94-6.5-2.36-2.65-4.07-5.55-5.06-8.62-1-3.09-1.62-6.1-1.82-8.93-.21-2.85-.32-5.32-.32-7.34V11.13L0,9.14V2.03l34.49-.62v7.11l-9.92,2.67v45.16c0,2.22.11,4.43.32,6.59.21,2.18.65,4.25,1.29,6.14.65,1.92,1.69,3.66,3.08,5.17,1.4,1.53,3.3,2.72,5.64,3.55,2.32.82,5.32,1.23,8.92,1.23s6.74-.44,9.11-1.3c2.39-.87,4.35-2.12,5.83-3.74,1.47-1.6,2.57-3.47,3.27-5.56.68-2.06,1.14-4.27,1.36-6.58.21-2.31.32-4.67.32-7.03V10.95l-9.92-1.82V2.03l34.49-.62v7.11l-9.92,2.63v44.62c0,3.85-.34,7.59-1.01,11.11-.67,3.51-1.83,6.78-3.45,9.73s-3.77,5.54-6.38,7.7-5.94,3.86-9.9,5.07c-3.97,1.21-8.7,1.82-14.05,1.82h-.01Z"/>
  <path class="cls-1" d="M103.24,63.3c-2.25,0-4.25-.41-5.94-1.22-1.66-.8-2.97-2.08-3.9-3.82-.94-1.76-1.41-4.12-1.41-7.01,0-2.35.33-4.69.99-6.95.65-2.25,1.68-4.31,3.05-6.13,1.37-1.81,3.12-3.27,5.21-4.34,2.09-1.07,4.61-1.61,7.5-1.61,2.21,0,4.2.4,5.89,1.19,1.66.78,2.98,2.06,3.92,3.82.95,1.78,1.44,4.17,1.44,7.1,0,2.35-.34,4.69-1.01,6.95-.67,2.25-1.7,4.3-3.08,6.1-1.37,1.79-3.12,3.24-5.21,4.32-2.09,1.07-4.59,1.61-7.45,1.61h0ZM107.65,37.13c-1.59,0-2.96.51-4.07,1.52-1.07.97-1.95,2.22-2.6,3.7-.64,1.45-1.11,3-1.4,4.59-.29,1.58-.44,3.03-.44,4.31,0,2.13.4,3.86,1.18,5.12.83,1.33,2.15,2.01,3.95,2.01,1.59,0,2.96-.51,4.07-1.52,1.07-.97,1.95-2.22,2.62-3.72.66-1.48,1.14-3.03,1.43-4.62.29-1.58.44-3.04.44-4.32,0-2.13-.4-3.85-1.18-5.1-.82-1.31-2.17-1.98-4-1.98h0Z"/>
  <path class="cls-1" d="M120.88,71.52c-.81,0-1.58-.05-2.29-.14-.52-.07-1-.13-1.42-.19l1.08-4.75c.19.01.39.04.59.07.39.06.78.09,1.18.09.96,0,1.83-.14,2.59-.43.77-.29,1.42-.72,1.94-1.29.51-.55.93-1.22,1.26-1.99.32-.75.56-1.63.72-2.62l3.93-24.4h-4.43l.56-3.56,4.58-1.05.44-3.02c.66-3.99,2.18-6.95,4.51-8.8,2.34-1.86,5.16-2.8,8.41-2.8,1,0,2.06.08,3.14.25.94.15,1.89.39,2.84.72l-1.6,4.61c-.52-.19-1.06-.34-1.62-.43-.71-.12-1.39-.18-2.02-.18-1.58,0-2.99.46-4.21,1.37-1.23.93-2.02,2.48-2.34,4.61l-.59,3.7h7.43l-.77,4.58h-7.37l-3.57,22.37c-.41,2.47-1.04,4.57-1.88,6.26-.83,1.68-1.84,3.05-2.99,4.08-1.15,1.02-2.43,1.77-3.8,2.23-1.38.46-2.83.69-4.3.69v.02Z"/>
</svg>