<svg id="Layer_1" data-name="Layer 1" xmlns="http://www.w3.org/2000/svg" viewBox="0 0 1345.57 436.77">
  <defs>
    <style>
      svg {
      background: #000;
      }
      .cls-1 {
      fill: #fff;
      }

      .cls-2 {
      fill: #e51937;
      }

      .cls-3 {
      fill: #ffc429;
      }
    </style>
  </defs>
  <g>
    <path class="cls-1" d="M389.77,356.42c-15.25,0-28.77-3.19-40.19-9.48-11.41-6.28-20.33-15.72-26.54-28.06-6.22-12.36-9.38-27.87-9.38-46.09s3.2-33.7,9.5-46.45c6.29-12.73,15.42-22.61,27.14-29.36,11.73-6.76,25.96-10.18,42.3-10.18,8.88,0,18.24,1.03,27.84,3.05,9.47,2,19.18,5.03,28.88,9.01l-2.07,39.58h-16.38l-1.96-11.13c-1.55-8.77-8.35-15.85-16.92-17.62l-.14-.03c-6.16-1.26-11.99-1.9-17.35-1.9-10.61,0-19.82,2.49-27.36,7.41-7.54,4.92-13.42,12.28-17.46,21.86-4.03,9.55-6.07,21.42-6.07,35.28,0,19.71,4.29,35.28,12.75,46.26,8.5,11.04,20.85,16.64,36.71,16.64,5.06,0,10.38-.6,15.82-1.78,4.26-.93,8.77-2.16,13.39-3.66l.42-.14v-39.4l-17.6-2.51v-14.91h60.9v14.91l-17.6,2.51v53.41c-10.5,4.15-20.78,7.34-30.56,9.49-9.91,2.18-19.36,3.29-28.07,3.29Z"/>
    <path class="cls-1" d="M559.23,356.42c-12.45,0-22.78-1.57-30.7-4.68-7.9-3.1-14.14-7.17-18.53-12.11-4.41-4.95-7.58-10.35-9.44-16.07-1.87-5.75-3.01-11.34-3.39-16.61-.39-5.29-.59-9.88-.59-13.64v-85.53l-18.41-3.69v-13.54l64.4-1.16v13.55l-18.41,4.95v83.64c0,4.1.2,8.21.59,12.21.39,4.03,1.2,7.85,2.39,11.34,1.2,3.53,3.11,6.74,5.67,9.53,2.57,2.82,6.07,5.01,10.4,6.53,4.28,1.51,9.83,2.28,16.49,2.28s12.47-.81,16.85-2.4c4.4-1.6,8.01-3.91,10.74-6.89,2.72-2.96,4.75-6.4,6.03-10.25,1.27-3.8,2.11-7.9,2.51-12.17.39-4.28.59-8.67.59-13.03v-81.24l-18.41-3.38v-13.53l64.4-1.16v13.55l-18.41,4.89v82.65c0,7.16-.63,14.11-1.88,20.65-1.25,6.53-3.41,12.62-6.43,18.11-3.02,5.49-7.02,10.31-11.89,14.34-4.87,4.02-11.07,7.2-18.44,9.44-7.39,2.25-16.18,3.39-26.14,3.39Z"/>
    <polygon class="cls-1" points="662.07 353.82 662.07 340.26 680.48 335.42 680.48 208.57 662.07 204.11 662.07 190.55 708.45 189.39 782.55 189.39 782.55 229 766.21 229 763.23 209.18 708.3 209.18 708.3 260.41 748.92 260.41 751.62 247.57 764.5 247.57 764.5 292.37 751.63 292.37 748.95 279.51 731.89 279.51 731.35 279.49 708.3 279.49 708.3 334.03 766.12 334.03 769.28 312.56 785.38 312.56 785.15 353.82 662.07 353.82"/>
    <polygon class="cls-1" points="814.24 353.82 814.24 340.27 832.65 335.52 832.65 207.74 814.24 204.09 814.24 190.56 880.77 189.4 880.77 202.93 860.47 207.7 860.47 334.03 912.1 334.03 915.79 307.6 931.89 307.6 931.89 353.82 814.24 353.82"/>
    <path class="cls-1" d="M956.71,353.82v-13.54l18.41-4.17v-127.62l-18.41-4.37v-13.56l47.56-1.17h23.12c12.58,0,23.05,2.16,31.11,6.42,8.04,4.25,14.11,10.16,18.04,17.56,3.95,7.43,5.95,16.06,5.95,25.67,0,10.38-2.4,19.85-7.12,28.13-4.72,8.27-11.94,14.82-21.45,19.46-9.55,4.66-21.89,7.02-36.67,7.02h-14.3v42.57l23.6,4.09v13.51h-69.83ZM1002.94,273.86h14.53c11.76,0,20.87-3.12,27.1-9.26,6.23-6.14,9.39-14.51,9.39-24.85,0-9.55-2.64-17.15-7.84-22.6-5.21-5.45-13.02-8.21-23.21-8.21h-19.96v64.92Z"/>
    <polygon class="cls-1" points="1197.53 353.82 1197.53 340.28 1215.94 336.1 1215.94 279.96 1141.79 279.96 1141.79 336.1 1160.2 340.28 1160.2 353.82 1095.57 353.82 1095.57 340.28 1113.98 336.15 1113.98 207.85 1095.57 204.1 1095.57 190.56 1160.2 189.4 1160.2 202.94 1141.79 207.73 1141.79 260.18 1215.94 260.18 1215.94 207.94 1197.53 204.1 1197.53 190.56 1261.93 189.4 1261.93 202.95 1243.52 207.85 1243.52 336.15 1261.93 340.28 1261.93 353.82 1197.53 353.82"/>
    <path class="cls-1" d="M349.81,147.59c-4.96,0-9.03-.62-12.12-1.83-3.07-1.21-5.48-2.78-7.17-4.68-1.7-1.91-2.94-3.99-3.67-6.18-.74-2.23-1.19-4.39-1.34-6.43-.15-2.06-.23-3.85-.23-5.3v-32.02l-6.76-1.8v-5.52l25.29-.44v5.53l-6.67,2.3v31.94c0,1.6.08,3.18.23,4.68.15,1.53.46,2.96.9,4.25.45,1.32,1.16,2.51,2.1,3.51.94,1.01,2.23,1.8,3.81,2.35,1.55.54,3.5.81,5.82.81s4.38-.29,5.96-.86c1.61-.58,2.93-1.42,3.94-2.49,1-1.07,1.75-2.32,2.23-3.74.47-1.38.79-2.92.94-4.57.15-1.64.23-3.36.23-5.13v-30.93l-6.76-1.71v-5.51l25.29-.44v5.53l-6.67,2.25v30.81c0,3.05-.29,5.91-.85,8.51-.56,2.58-1.48,4.95-2.72,7.04-1.23,2.09-2.84,3.9-4.78,5.4-1.94,1.5-4.35,2.66-7.15,3.46-2.83.8-6.14,1.21-9.84,1.21Z"/>
    <polygon class="cls-1" points="450.26 146.5 424.66 99.63 423.52 99.92 423.52 138.98 430.28 140.98 430.28 146.5 407.18 146.5 407.18 140.98 413.94 138.98 413.94 91.11 407.18 89.34 407.18 83.82 428.52 83.39 453.57 129.09 454.71 128.8 454.71 91.1 448.04 89.34 448.04 83.83 471.05 83.39 471.05 88.92 464.38 91.11 464.38 146.5 450.26 146.5"/>
    <polygon class="cls-1" points="499 146.5 499 140.98 505.76 139.04 505.76 91.18 499 89.35 499 83.83 524.3 83.39 524.3 88.92 517.62 91.19 517.62 139.01 524.3 140.98 524.3 146.5 499 146.5"/>
    <polygon class="cls-1" points="574.65 146.59 555.85 90.92 550.14 89.35 550.14 83.83 575.98 83.39 575.98 88.9 569.18 90.84 582.27 134.88 596.69 91.13 589.9 89.34 589.9 83.83 613.09 83.39 613.09 88.9 607.47 90.59 587.68 146.59 574.65 146.59"/>
    <path class="cls-1" d="M754.92,146.5l-8.06-17.29c-1.1-2.32-2.07-4.14-2.87-5.41-.86-1.35-1.94-2.3-3.21-2.8-1.1-.44-2.58-.65-4.51-.65-.25,0-.5,0-.76.01h-3.15s0,18.62,0,18.62l7.5,2v5.51h-26.12v-5.52l6.76-1.91v-47.88l-6.76-1.84v-5.52l19.79-.44h8.85c7.13,0,12.57,1.49,16.16,4.43,3.55,2.91,5.35,7.18,5.35,12.69,0,4.94-1.53,9.07-4.54,12.29-2.25,2.4-5.52,4.13-9.73,5.14l-2.19.53,2.16.64c.41.12.79.26,1.14.41,1.43.63,2.64,1.52,3.57,2.62.97,1.15,1.88,2.54,2.71,4.14l6.76,13.01,5.14,1.68v5.53h-14ZM732.36,112.53h6c4.39,0,7.75-.94,9.98-2.79,2.27-1.88,3.42-4.68,3.42-8.33,0-3.08-.92-5.53-2.74-7.29-1.82-1.75-4.6-2.64-8.28-2.64h-8.38v21.04Z"/>
    <path class="cls-1" d="M817.68,147.69c-3.18,0-6.48-.32-9.8-.95-3.19-.6-6.38-1.51-9.5-2.7l.43-16.34h6.49l1.57,9.06.3.13c1.63.69,3.32,1.24,5.04,1.62,2.07.47,4.13.7,6.12.7,2.31,0,4.46-.32,6.4-.94,1.99-.64,3.59-1.65,4.75-3.02,1.19-1.39,1.79-3.12,1.79-5.15s-.64-3.75-1.9-5.08c-1.21-1.27-2.87-2.35-4.91-3.2-1.98-.82-4.17-1.6-6.5-2.31-2.28-.69-4.62-1.5-6.95-2.41-2.3-.89-4.44-2.04-6.36-3.4-1.9-1.34-3.42-3.07-4.52-5.14-1.1-2.06-1.66-4.72-1.66-7.89,0-4.17,1-7.63,2.99-10.28,1.99-2.67,4.73-4.71,8.15-6.06,3.45-1.37,7.4-2.06,11.75-2.06,3.11,0,6.39.33,9.75.99,3.22.63,6.49,1.58,9.72,2.82l-.94,14.98h-6.7l-1.69-8.79-.33-.11c-1.35-.46-2.53-.78-3.71-1-1.77-.34-3.58-.51-5.37-.51-2.12,0-4.11.27-5.93.8-1.86.55-3.38,1.43-4.52,2.63-1.17,1.24-1.77,2.87-1.77,4.85s.68,3.56,2.02,4.83c1.26,1.2,2.92,2.24,4.93,3.09,1.96.83,4.16,1.63,6.54,2.39,2.34.75,4.7,1.61,6.99,2.54,2.26.92,4.38,2.1,6.32,3.49,1.9,1.37,3.44,3.13,4.57,5.23,1.13,2.09,1.71,4.76,1.71,7.94,0,4.34-1.14,7.97-3.39,10.77-2.27,2.83-5.33,4.96-9.11,6.34-3.82,1.4-8.11,2.11-12.77,2.11Z"/>
    <polygon class="cls-1" points="874.38 146.5 874.38 140.98 881.14 139.04 881.14 91.18 874.38 89.35 874.38 83.83 899.67 83.39 899.67 88.92 893 91.19 893 139.01 899.67 140.98 899.67 146.5 874.38 146.5"/>
    <polygon class="cls-1" points="939.78 146.5 939.78 141 947.55 139.04 947.55 91.58 936.58 91.58 934.66 100.63 927.99 100.63 927.99 83.38 979.06 83.38 979.06 100.63 972.39 100.63 970.52 91.58 959.5 91.58 959.5 139.02 967.27 141 967.27 146.5 939.78 146.5"/>
    <polygon class="cls-1" points="1021.44 146.5 1021.44 140.98 1028.48 138.93 1028.48 124.02 1011.27 91.02 1005.81 89.36 1005.81 83.83 1030.1 83.39 1030.1 88.89 1023.56 90.65 1035.52 115.96 1047.62 91.19 1040.82 89.35 1040.82 83.82 1063.37 83.39 1063.37 88.9 1058.09 90.49 1040.34 124.21 1040.34 138.95 1047.28 140.98 1047.28 146.5 1021.44 146.5"/>
    <path class="cls-1" d="M1160.2,147.59c-5.65,0-10.61-1.22-14.73-3.62-4.11-2.39-7.33-5.98-9.59-10.66-2.26-4.7-3.41-10.61-3.41-17.56,0-5.57.73-10.52,2.16-14.7,1.43-4.16,3.47-7.67,6.08-10.43,2.61-2.75,5.74-4.86,9.33-6.25,3.6-1.4,7.66-2.11,12.07-2.11s8.32.69,11.8,2.06c3.46,1.36,6.47,3.37,8.92,5.97,2.46,2.61,4.4,5.9,5.77,9.79,1.37,3.91,2.07,8.5,2.07,13.64,0,7-1.29,13.1-3.82,18.14-2.53,5.02-6.09,8.93-10.6,11.63-4.51,2.7-9.91,4.07-16.05,4.07ZM1161.57,91.12c-3.15,0-5.99.77-8.45,2.28-2.48,1.53-4.43,4.09-5.78,7.61-1.33,3.46-2.01,8.27-2.01,14.29,0,5.53.63,10.04,1.87,13.41,1.26,3.43,3.1,5.98,5.48,7.6,2.38,1.62,5.24,2.43,8.52,2.43s6-.78,8.46-2.33c2.47-1.55,4.48-4.17,5.95-7.78,1.46-3.56,2.19-8.39,2.19-14.35,0-5.53-.68-10.05-2.01-13.43-1.35-3.43-3.26-5.94-5.68-7.46-2.4-1.52-5.28-2.29-8.55-2.29Z"/>
    <polygon class="cls-1" points="635.3 146.5 635.3 140.98 642.07 139.02 642.07 91.18 635.3 89.35 635.3 83.82 654.27 83.38 680.71 83.38 680.71 98.62 674.04 98.62 672.59 91.58 653.92 91.58 653.92 110.43 658.77 110.43 658.77 110.42 666.95 110.42 668.47 104.69 673.63 104.69 673.63 123.99 668.48 123.99 666.97 118.26 653.92 118.26 653.92 138.3 673.7 138.3 675.23 130.53 681.89 130.53 681.72 146.5 635.3 146.5"/>
    <polygon class="cls-1" points="1214.54 146.5 1214.54 140.98 1221.3 139 1221.3 91.22 1214.54 89.35 1214.54 83.82 1233.51 83.38 1259.48 83.38 1259.48 98.8 1252.82 98.8 1251.36 91.58 1233.16 91.58 1233.16 110.79 1245.51 110.79 1247.08 104.88 1252.46 104.88 1252.46 124.93 1247.08 124.93 1245.52 118.99 1233.16 118.99 1233.16 139.02 1241.48 141 1241.48 146.5 1214.54 146.5"/>
  </g>
  <g>
    <path class="cls-2" d="M268.15,150.52l-.05,103.74h0c-.07,14-.45,28.06-2.93,41.94-7.84,48.96-45.95,78.15-87.71,99.06l-1.55.78-1.55-.79c-33.52-16.93-67.62-40.42-81.52-76.9-3.96-10.21-6.2-20.85-7.45-31.63-1.25-10.8-1.51-21.74-1.54-32.55l.05-103.74,88.74.04h6.75s88.74.05,88.74.05ZM261.35,247.5l.04-90.23-81.99-.04-.04,90.23,81.99.04ZM261.32,254.26l-81.96-.04h-6.75s-81.96-.04-81.96-.04c.2,20.84,1.2,42.08,8.9,61.59,13.25,33.92,44.89,55.49,76.38,71.46,31.51-15.93,63.17-37.48,76.45-71.38,7.72-19.5,8.74-40.74,8.96-61.58ZM172.61,247.46l.04-90.23-81.99-.04-.04,90.23,81.99.04Z"/>
    <path class="cls-3" d="M220.38,236.95c-.75,0-1.51-.03-2.26-.08-14.89-1.08-26.98-13.11-28.12-27.99-1.21-15.78,9.6-29.72,25.16-32.42l.41-.07.21-.81c.24-.9,1.05-1.53,1.99-1.53h.1l.38-1.09-.08-.06c-.84-.67-1.32-1.68-1.33-2.78-.02-1.86,2.85-3.2,3.56-3.5.71.3,3.55,1.63,3.56,3.51,0,1.08-.48,2.09-1.34,2.77l-.08.06.38,1.1h.1c.93,0,1.75.63,1.99,1.53l.21.81.41.07c14.62,2.55,25.22,15.18,25.22,30.03,0,16.8-13.68,30.46-30.47,30.46h0ZM229.85,222.11c-2.04,1.27-4.17,2.11-6.36,2.49l-.54.09v6.58s.73-.1.73-.1c11.56-1.52,20.31-9.95,21.77-20.99l.1-.73h-7.35s-.09.53-.09.53c-.38,2.15-1.2,4.26-2.44,6.27l-.08.12-.02,5.63h-5.56s-.16.1-.16.1ZM196.05,210.17c1.48,11.27,9.73,19.52,21,21.01l.74.1v-17.89s-10.94,10.69-10.94,10.69c-.84-1.07-1.3-2.47-1.29-3.97,0-1.73.63-3.35,1.72-4.44l6.37-6.23h-17.7s.1.73.1.73ZM222.96,220.11l.81-.21c4.71-1.23,8.41-4.92,9.64-9.63l.21-.81h-10.66s0,10.66,0,10.66ZM233.91,189.64c1.87,2.4,1.69,6.29-.43,8.41l-6.37,6.23h18.45s-.1-.73-.1-.73c-1.48-11.32-10.43-20.27-21.75-21.78l-.74-.1v18.66s10.93-10.7,10.93-10.7ZM216.99,193.82c-4.72,1.23-8.41,4.92-9.65,9.64l-.21.81h10.67s0-10.66,0-10.66l-.81.21ZM217.07,181.78c-11.04,1.45-19.48,10.2-21.02,21.76l-.1.74h6.59s.09-.54.09-.54c.38-2.15,1.2-4.26,2.44-6.27l.08-.12.02-5.73h5.68s.2-.09.2-.09c2-1.22,4.08-2.02,6.2-2.39l.54-.09v-7.35s-.73.1-.73.1Z"/>
    <path class="cls-3" d="M127.53,234.02l-7.91,3.59v-7.46s-16.39,0-16.39,0l.02-51.94,2.46-.04v-3.19c1.32.42,2.65.62,4.07.62,2.81,0,5.45-.83,8-1.63,2.54-.8,4.95-1.55,7.49-1.55,1.92,0,3.71.44,5.48,1.35l.3.15.3-.15c1.74-.89,3.51-1.33,5.39-1.33,2.55,0,4.96.77,7.51,1.58,2.55.82,5.19,1.66,7.99,1.66,1.45,0,2.81-.22,4.16-.67v3.18s3.59.04,3.59.04l.02,51.94h-24.56s0,7.44,0,7.44l-7.91-3.6ZM131.16,231.05l-.36-17.5h-6.62s-.26,17.49-.26,17.49l3.62-1.64,3.63,1.65ZM137.7,221.57c2.4,0,4.51.75,6.74,1.54,2.29.81,4.65,1.65,7.39,1.65.72,0,1.45-.06,2.17-.18l.54-.09.02-43.11-.75.12c-.64.1-1.3.16-1.94.16-2.52,0-4.78-.8-6.97-1.58-2.24-.79-4.56-1.62-7.19-1.62-.56,0-1.12.04-1.68.11l-.56.08-.02,43.11.74-.1c.5-.07,1.01-.1,1.51-.1ZM108.7,224.63l.6.05c.36.03.71.04,1.06.04,3.02,0,5.61-.97,7.89-1.83l1.38-.51.02-43.18-1.78.66c-2.2.83-4.7,1.77-7.54,1.77-.3,0-.61-.01-.92-.03l-.7-.05-.02,43.09ZM124.17,208.43h6.63s.37-30.14.37-30.14h-7.22s.22,30.14.22,30.14Z"/>
    <path class="cls-3" d="M171.7,369.56c-8.06-3.06-16-10.38-20.31-16.31l-.64-.88-.71.81c-2.28,2.6-3.01,3.93-3.94,5.61-.25.46-.5.9-.79,1.39l-2.32-3.26c-4.6-6.49-6.76-13.08-7.63-16.42l-.12-.44-.43-.15c-11.42-4.02-13.17-10.49-14.07-14.05l.25-.12c1.75-.83,3.57-1.69,5.28-2.71l.64-.38-.28-.69c-5.28-12.95-4.27-25.92,2.87-36.54,7.33-10.92,20.07-17.7,33.23-17.7s23.86,6.24,31.64,17.56l.38.56.63-.24c7.64-2.85,12.42-8.14,16.64-12.8,5.09-5.62,9.48-10.47,17.55-10.47,3.01,0,6.33.66,10.16,2.02l3.15,1.14c-7.59,9.78-10.63,21.11-13.58,32.07-4.6,17.09-8.94,33.24-30.09,41l-.92.34.44.87c.97,1.9,2.5,4.39,4.69,7.61-6.78,6.96-17.49,7.72-21.79,7.72-2.96,0-5.8-.31-8.01-.88l-.96-.25-.11.99c-.79,6.94-.79,9.03-.8,11.92,0,.81,0,1.65-.02,2.67ZM151.7,344.76c.44.62.85,1.25,1.28,1.89,2.29,3.44,4.89,7.33,12.47,13.67l1.32,1.11.1-1.72c.19-3.3.85-7.83,1.76-12.15l2.73.86s4.98,1.54,11.17,1.54c5.22,0,9.67-1.08,13.23-3.22l.75-.45-.45-.75c-.88-1.44-1.63-2.8-2.24-4.04l-.52-1.06-.85.82c-2.43,2.32-5.78,3.6-9.42,3.6-6.39,0-12.18-3.79-14.1-9.21l-.16-.46-3.34-.71-.07,1c-.27,4.11-2.71,8.34-3.84,10.1-3.45-2.75-7.73-9.29-7.78-9.36l-.31-.48-.56.09c-1.16.2-3.34,1.86-4.64,2.93-.67-2.61-.65-5.88-.57-7.63l.04-.81-.8-.09c-4.32-.5-8.17-3.08-10.3-6.9l-.52-.93-.81.69c-1.96,1.68-4.35,3.3-7.1,4.81l-.79.43.46.77c1.68,2.8,6.25,5.96,11.75,6.63.09.43.16.85.23,1.25.51,2.85.95,5.32,4.74,12.85l.59,1.18.85-1.01c1.35-1.61,4.02-3.84,5.69-5.22ZM182.88,339.78c4.33,0,7.9-2.82,9.09-7.2,1.19-4.35-.45-8.58-4.17-10.78l-.46-.27-.45.29c-2.08,1.36-4.17,5.17-5.05,6.91-2.64-2.34-4.76-6.59-4.76-6.59l-.09.07c-3.41,2.36-4.77,6.57-3.47,10.72,1.3,4.15,4.83,6.83,9,6.83h0c.13,0,.37,0,.37,0ZM229.91,266.66c-7.92,0-12.2,6.56-16.33,12.91-.6.91-1.18,1.81-1.78,2.69-7.05,9.91-11.8,12.26-11.85,12.28l-.71.34.26.74c1.98,5.56,1.41,20.99-2.98,28.11l-.23.37.17.41c.68,1.67,1.35,4.28,1.33,6.33v.98s.96-.11.96-.11c6.9-.78,14.03-9.07,14.47-25.82,1.31,1.06,3.32,3.16,3.7,6.25l.34,2.72,1.29-2.42c2.55-4.78,3.65-9.1,4.82-13.66.47-1.84.96-3.75,1.57-5.81l.74-2.25c2.49-7.58,5.06-15.41,9.06-22.2l.58-.99-1.11-.29c-1.5-.39-2.95-.59-4.31-.59ZM148.47,325.18c4.57,0,8.35-3.72,8.44-8.29.06-3.2-1.69-6.12-4.57-7.62l-.7-.37-.43.67c-.79,1.24-1.96,2.49-2.65,3.19-.84-.9-2.44-2.36-4.29-2.93l-.39-.12-.34.23c-2.94,1.99-4.13,5.61-3.02,9.24,1.11,3.63,4.14,5.98,7.71,5.98h.11s.14,0,.14,0ZM165.89,309.19c-1.85,0-3.45.8-4.51,2.26l-.27.37.15.43c.73,2.04.95,4.42.61,6.53l-.07.46.34.32c1.03.96,2.34,1.47,3.78,1.47,1.66,0,3.29-.68,4.46-1.87,1.06-1.08,1.64-2.49,1.61-3.98.08-1.5-.44-2.9-1.5-4.02-1.16-1.22-2.88-1.95-4.6-1.95ZM161.44,273.42c-10.54,0-20.52,5.49-26.7,14.68-6.15,9.15-7.45,20.43-3.48,30.17l.46,1.13.92-.81c.97-.85,1.7-1.65,2.16-2.38l.11-.17.03-.27c.26-7.76,7.43-12.57,13.92-12.57,3.24,0,6.16,1.13,8.46,3.25l.58.54.59-.52c1.02-.9,2.17-1.61,3.41-2.1l.59-.23-.05-.63c-.47-6.56,4.48-12.41,11.03-13.05l2.34-.23-1.92-1.34c-3.92-2.74-8.64-4.19-13.66-4.19-3.6,0-7.16.71-10.58,2.13,3.61-3.76,8.42-5.74,13.96-5.74,8.46,0,17.19,4.65,22.22,11.86,4.64,6.63,5.59,14.66,2.69,22.59l-.27.75.72.34c.93.43,1.81.96,2.61,1.57l.92.7.42-1.07c3.78-9.75,2.34-20.96-3.84-29.99-6.16-9-16.07-14.37-26.49-14.38-.36-.01-.75-.02-1.14-.02ZM170.67,296.8c-2.04,1.39-3.23,3.77-3.13,6.2l.03.68.67.13c3.2.62,6,2.59,7.68,5.4l.34.56.63-.17c2.83-.76,4.78-3.29,4.97-6.45.19-3.16-1.44-5.91-4.16-7.01l-.65-.26-.39.57c-.98,1.44-1.82,3-2.27,3.89-.94-.84-1.77-1.93-2.46-3.25l-.45-.87-.81.55Z"/>
    <g>
      <path class="cls-3" d="M244.04,132l-32.21-.02c-.03-2.59-1.28-3.52-2.92-4.02-1.53-.47-3.44-1.05-4.23-3.49-1.01-3.1,1.35-9.7,5.49-19.36l.3-.51s1.32-.02,2.59-.49l.45-.17.38.3c10.51,8.26,10.18,11.14,8.55,14.31-.65,1.26-1.21,2.36.07,4.51.4-.38.77-.73,1.12-1.07,1.82-1.76,3.03-2.92,4.72-2.92,1.19,0,2.44.59,4.18,1.98l.21.2.07.2c.61,1.86.75,4.35.78,5.81,1.1-.62,2.8-1.8,3.37-3.45l.75-2.19.88,2.14c.38.93.68,1.93.9,2.97,1.73-2.16,2.4-4.08,2-5.72-.46-1.89-1.54-2.62-3.49-3.94-.94-.64-2.01-1.37-3.25-2.39-4.24-3.5-8.78-11.49-10.11-17.82l-.2-.94.95-.1c1.73-.19,2.64-1.23,3.05-1.89-1.39-1.45-4.49-6.33-4.98-12.58-.71-8.99,2.92-10.84,3.08-10.91.08-.04,2.06-.88,4.14-.88,2.29,0,3.87,1,4.59,2.91,3.45-3.71,5.02-6.53,4.67-8.41-.36-1.9-2.74-2.95-5.25-4.07l-.81-.39-.12-.19c-1.71-2.84-4.97-4.79-8.75-7.04-3.99-2.39-8.51-5.09-11.92-9.46-1.27,1.6-1.64,3.54-1.64,3.56l-.16.86-.86-.16c-.15-.03-3.55-.7-7-4.1-2.37,4.05-2.48,10.6,1.89,15.44l.31.34c-1.03,2.84-4.2,5.32-4.2,5.32l-.43-.77c-.63-1.13-1.21-2.19-1.76-3.2-4.21-7.75-6.32-11.64-16.32-13.06-2.85-.4-6.2-.8-9.76-1.21-10.67-1.25-23.94-2.79-36.71-6.1-.98,2.51-1.34,5.56-1.34,5.59l-.09.82-.82-.05c-4.78-.27-11.39-.91-14.77-1.67-1.08,10.78,7.28,14.69,7.64,14.85l.44.2.07.47c.8,5.71,5.12,8.57,5.16,8.6l.34.22.05.4c.65,5.06,5.58,7.33,5.63,7.35l2.2.98-2.32.64c-8.82,2.44-15.15,12.78-20.73,21.01-5.59,8.25-10.88,16.05-17.95,16.05-1.4,0-2.84-.31-4.3-.93,0,2.01.32,5.48,2.35,7.69,1.25,1.36,3.04,2.05,5.29,2.05,6.71-.02,12.03-7.71,17.17-15.15,4.5-6.5,8.75-12.64,14-14.11l.93-.26.16.95c.06.39,1.48,9.72-8.75,16.64l.43,19.76h-20.95c-1.14-.01-2.61,1.41-2.61,3.15v3.19s144.3.07,144.3.07v-3.19c0-1.75-1.46-3.16-3.94-3.17ZM164.22,127.71c-1.18-.36-2.39-.74-2.95-2.03-3.11-7.27-.09-9.66,3.41-12.42,2.76-2.17,5.88-4.63,6.87-10.34l.12-.72h.73c1.72,0,15.56,2.38,17.91,2.87l.45.09.18.43c.12.29,1.21,2.92,2.12,4.51l.67,1.17-1.35.12c-.49.04-1.01.07-1.55.07-1.54,0-2.98-.18-3.98-.34.81,2.94,3.12,4.55,5.37,6.12,2.34,1.63,4.55,3.17,4.34,6-.2,2.59-1.95,4.11-3.49,5.45-.88.76-1.79,2.24-2.35,3.29h-22.97c-.35-2.73-1.86-3.75-3.53-4.26ZM134.41,112.35c8.67-7.38,7.08-19.41,6.63-21.95l-5.86-2.47.59-.87c4.62-6.85,16.21-8.73,25.79-8.73,4.66,0,9.45.24,14.13.47,4.26.21,8.29.41,11.88.41,1.19,0,2.24-.02,3.23-.06-2.23-2.46-8.97-3.68-31.2-4.19-12.12-.28-20.12.25-20.99-4.81l-.18-1.04,49.47,1.37c-2.26-2.1-8.73-3.2-23.7-3.89-2.38-.11-4.65-.2-6.79-.28-14.86-.59-23.83-.23-24.6-5.51l-.15-1.03,51.49,1.92c-2.84-2.69-10.55-3.7-20.3-4.07-1.28-.05-2.61-.1-3.96-.16l-3.31-.14c-17.9-.74-30.84-.56-32.11-7.24l-.23-1.22,1.23.2c5.52.92,19.8,1.53,32.4,2.06l2.18.09c2.49.11,5.28.16,8.01.22,6.17.13,12.54.26,16.03.98,9.07,1.89,14.07,15.9,15.49,20.53,2.74-2.62,8.94-8.84,11.5-13.93-1.37-1.08-4.22-3.88-3.53-7.9l.2-1.18,1.06.56c1.57.83,4.32,1.65,7.22,2.51,6.32,1.88,13.48,4.02,15.47,7.9l.33.63-.56.44c-.83.66-1.59,1.48-2.41,2.33-5.97,6.23-11.17,4.14-11.17,4.14-.07,2.44,3.14,2.96,3.14,2.96,0,0-1.02,2.17-.93,7.44.02,1.08.08,3.17.14,4.27.35,6.55.72,13.33-7.37,16.62l-1.61.65.44-1.68c1.14-4.3-.16-6.44-1.15-7.39-1.25,3.55-6.63,18.81-8.29,23.82l-.46,1.41-1-1.1c-5.79-6.34-10.25-22.73-11.16-26.25-.19,0-.41,0-.66,0-1.79,0-5.32-.09-9.06-.68,1.39,4.47,6.02,5.12,6.22,5.15l.57.07.16.55c.46,1.6,1.64,4.29,1.65,4.31l.51,1.17-1.28.05c-.11,0-.22,0-.34,0-1.95,0-5.16-.55-8.55-1.12-3.83-.65-7.8-1.33-10.45-1.33h-.85l-.02-.85c-.08-3.65-1.9-5.29-3.11-5.97-.99,13.22-10.25,20.63-29.13,23.31l-2.96.42,2.28-1.94ZM137.67,126.96l-.7-.04-.11-.69c-1.15-7.53,2.29-8.3,6.27-9.2,1.6-.36,3.41-.77,5.18-1.68l.93-.48.3,1.01c2.48,8.41,1.54,14.2,1.06,16.08h-9.04c-.5-1.84-1.61-4.84-3.91-4.99Z"/>
      <path class="cls-3" d="M221.97,63.36c-.61,0-1.23-.15-1.86-.45-2.77-1.32-2.8-4.08-2.77-4.73,7.2,1.34,8.29,2.7,8.44,2.96-.25.35-1.66,2.22-3.81,2.22h0Z"/>
    </g>
  </g>
</svg>